<svg width="800" height="800" xmlns="http://www.w3.org/2000/svg">
 <g id="Layer_1">
  <title>Layer 1</title>
  <g stroke="null" id="svg_3">
   <g stroke="null" id="svg_2">
    <path stroke="null" id="svg_1" d="m629.16782,478.82207c-14.01281,0 -25.69016,8.75801 -30.3611,20.43535l-151.80548,-30.3611c0,-1.16773 0,-1.7516 0,-2.91934c0,-4.08707 -0.58387,-8.17414 -1.7516,-12.26121l81.74141,-35.6159c8.17414,13.42895 22.77082,22.77082 39.70297,22.77082c25.69016,0 46.70938,-21.01922 46.70938,-46.70938c0,-18.68375 -11.09348,-35.03203 -27.44176,-42.03844l11.09348,-37.95137c1.16773,0 2.33547,0.58387 3.5032,0.58387c5.83867,0 11.67734,-2.33547 15.76441,-6.42254c9.34188,-8.75801 9.92574,-23.35469 1.16773,-32.69656c-4.08707,-4.67094 -10.50961,-7.00641 -16.93215,-7.00641c-5.83867,0 -11.67734,2.33547 -15.76441,6.42254c-4.67094,4.08707 -7.00641,9.92574 -7.00641,16.34828c0,6.42254 1.7516,12.26121 6.42254,16.34828c2.33547,2.33547 4.67094,4.08707 7.59027,5.2548l-10.50961,37.3675c-4.67094,-1.16773 -9.34188,-2.33547 -14.01281,-2.33547c-12.84508,0 -24.52242,5.2548 -32.69656,13.42895l-11.67734,-11.67734c9.92574,-12.26121 9.92574,-30.3611 -1.16773,-42.03844c-5.83867,-6.42254 -14.59668,-9.92574 -23.35469,-9.92574c-8.17414,0 -15.76441,2.91934 -21.60309,8.75801c-3.5032,3.5032 -6.42254,7.59027 -8.17414,12.26121l-49.04485,-8.17414l6.42254,-92.25102c15.76441,-1.7516 28.02563,-15.18055 28.02563,-31.52883c0,-17.51602 -14.01281,-31.52883 -31.52883,-31.52883s-31.52883,14.01281 -31.52883,31.52883c0,14.59668 9.92574,27.44176 23.93856,30.94496l-6.42254,91.08329l-78.23821,-14.01281c-0.58387,-5.2548 -2.33547,-9.92574 -5.83867,-14.01281c-4.08707,-4.67094 -10.50961,-7.00641 -16.93215,-7.00641c-4.67094,0 -9.34188,1.7516 -13.42895,4.08707l-38.53524,-42.03844c3.5032,-4.08707 5.83867,-9.34188 5.83867,-14.59668c0,-12.84508 -10.50961,-23.35469 -23.35469,-23.35469s-23.35469,10.50961 -23.35469,23.35469s10.50961,23.35469 23.35469,23.35469c5.2548,0 9.34188,-1.7516 13.42895,-4.08707l38.53524,42.03844c-7.00641,8.75801 -7.59027,21.01922 0,29.77723l-35.6159,57.21899c-5.2548,-2.33547 -11.09348,-3.5032 -16.93215,-3.5032c-10.50961,0 -21.01922,4.08707 -28.60949,11.09348c-1.7516,1.7516 -3.5032,3.5032 -4.67094,5.2548l-21.60309,-14.01281c1.7516,-2.91934 2.33547,-6.42254 2.33547,-9.92574c0,-12.84508 -10.50961,-23.35469 -23.35469,-23.35469s-23.35469,10.50961 -23.35469,23.35469s10.50961,23.35469 23.35469,23.35469c7.00641,0 13.42895,-3.5032 17.51602,-8.17414l21.60309,14.01281c-8.75801,15.18055 -6.42254,35.6159 5.83867,49.04485c1.7516,1.7516 2.91934,2.91934 4.67094,4.08707l-18.68375,26.27402c-4.08707,-1.7516 -8.75801,-2.91934 -13.42895,-2.91934c-17.51602,0 -32.1127,14.01281 -32.1127,32.1127s14.01281,32.1127 32.1127,32.1127s32.1127,-14.01281 32.1127,-32.1127c0,-8.17414 -3.5032,-16.34828 -8.75801,-21.60309l19.85149,-26.85789c4.67094,1.7516 9.92574,2.91934 15.76441,2.91934c7.00641,0 14.01281,-1.7516 19.85149,-5.2548l43.79004,66.56086c-5.2548,4.08707 -8.17414,10.50961 -8.17414,17.51602c0,12.84508 10.50961,23.35469 23.35469,23.35469s23.35469,-10.50961 23.35469,-23.35469s-10.50961,-23.35469 -23.35469,-23.35469c-3.5032,0 -7.00641,1.16773 -9.92574,2.33547l-43.79004,-67.7286c1.16773,-1.16773 2.33547,-1.7516 3.5032,-2.91934c16.93215,-15.76441 17.51602,-42.03844 1.7516,-58.97059c-1.16773,-1.16773 -2.33547,-2.33547 -4.08707,-3.5032l35.03203,-57.21899c2.33547,1.16773 5.2548,1.7516 7.59027,1.7516c5.83867,0 11.67734,-2.33547 15.76441,-6.42254c2.33547,-2.33547 4.08707,-4.67094 5.2548,-7.00641l78.23821,13.42895l-5.83867,101.5929c-9.34188,0.58387 -17.51602,4.08707 -24.52242,9.34188l-11.09348,-12.26121c3.5032,-4.08707 5.83867,-9.34188 5.83867,-15.18055c0,-12.84508 -10.50961,-23.35469 -23.35469,-23.35469s-23.35469,10.50961 -23.35469,23.35469s10.50961,23.35469 23.35469,23.35469c4.67094,0 9.34188,-1.7516 13.42895,-4.08707l11.09348,12.26121c-7.59027,8.17414 -12.26121,18.68375 -12.26121,30.94496c0,23.93856 18.68375,43.20617 42.03844,44.37391l1.7516,71.2318c-15.76441,1.7516 -28.02563,15.18055 -28.02563,31.52883c0,17.51602 14.01281,31.52883 31.52883,31.52883s31.52883,-14.01281 31.52883,-31.52883c0,-16.93215 -12.84508,-30.3611 -29.77723,-31.52883l-1.7516,-71.2318c17.51602,-1.7516 32.1127,-13.42895 37.95137,-29.77723l151.80548,30.3611c0,0 0,0.58387 0,0.58387c0,18.09988 14.59668,32.69656 32.69656,32.69656s32.69656,-14.59668 32.69656,-32.69656s-15.18055,-32.69656 -32.69656,-32.69656zm-36.19977,-196.17938c2.33547,-1.7516 4.67094,-2.91934 7.59027,-2.91934c2.91934,0 6.42254,1.16773 8.17414,3.5032c4.08707,4.67094 4.08707,11.67734 -0.58387,16.34828c-4.67094,4.08707 -12.26121,4.08707 -16.34828,-0.58387c-2.33547,-2.33547 -2.91934,-5.2548 -2.91934,-8.17414s1.7516,-6.42254 4.08707,-8.17414zm-430.89401,87.58008c-6.42254,0 -11.67734,-5.2548 -11.67734,-11.67734c0,-6.42254 5.2548,-11.67734 11.67734,-11.67734s11.67734,5.2548 11.67734,11.67734c0,6.42254 -5.2548,11.67734 -11.67734,11.67734zm17.51602,145.38294c-11.09348,0 -20.43535,-9.34188 -20.43535,-20.43535s9.34188,-20.43535 20.43535,-20.43535s20.43535,9.34188 20.43535,20.43535s-9.34188,20.43535 -20.43535,20.43535zm148.30227,14.59668c0,6.42254 -5.2548,11.67734 -11.67734,11.67734c-6.42254,0 -11.67734,-5.2548 -11.67734,-11.67734c0,-6.42254 5.2548,-11.67734 11.67734,-11.67734c6.42254,0 11.67734,5.2548 11.67734,11.67734zm-69.4802,-100.42516c-5.83867,5.2548 -12.84508,8.17414 -20.43535,8.17414c-8.17414,0 -16.34828,-3.5032 -22.18695,-9.34188c-11.09348,-12.26121 -10.50961,-30.94496 1.16773,-42.62231c5.83867,-5.2548 12.84508,-8.17414 20.43535,-8.17414c8.17414,0 16.34828,3.5032 22.18695,9.34188c11.67734,12.26121 11.09348,31.52883 -1.16773,42.62231zm-20.43535,-197.34712c-6.42254,0 -11.67734,-5.2548 -11.67734,-11.67734c0,-6.42254 5.2548,-11.67734 11.67734,-11.67734s11.67734,5.2548 11.67734,11.67734c-0.58387,6.42254 -5.2548,11.67734 -11.67734,11.67734zm77.65434,72.9834c-4.67094,4.08707 -12.26121,4.08707 -16.34828,-0.58387c-4.08707,-4.67094 -4.08707,-11.67734 0.58387,-16.34828c2.33547,-1.7516 4.67094,-2.91934 7.59027,-2.91934c2.91934,0 6.42254,1.16773 8.17414,3.5032c4.67094,4.67094 4.08707,11.67734 0,16.34828zm251.0629,53.71578c19.26762,0 35.03203,15.76441 35.03203,35.03203s-15.76441,35.03203 -35.03203,35.03203s-35.03203,-15.76441 -35.03203,-35.03203s15.76441,-35.03203 35.03203,-35.03203zm-82.32528,-44.37391c3.5032,-3.5032 8.75801,-5.2548 14.01281,-5.2548c5.83867,0 11.09348,2.33547 14.59668,6.42254c7.59027,8.17414 7.00641,21.01922 -1.16773,28.60949c-3.5032,3.5032 -8.75801,5.2548 -14.01281,5.2548c-5.83867,0 -11.09348,-2.33547 -14.59668,-6.42254c-7.59027,-8.75801 -7.00641,-21.01922 1.16773,-28.60949zm-18.09988,15.18055c0,7.59027 2.91934,15.18055 8.75801,21.01922c5.83867,6.42254 14.59668,9.92574 23.35469,9.92574c7.59027,0 14.59668,-2.91934 20.43535,-7.59027l11.67734,11.67734c-5.83867,7.59027 -9.92574,17.51602 -9.92574,28.60949c0,4.67094 0.58387,8.75801 1.7516,13.42895l-81.74141,35.6159c-6.42254,-10.50961 -16.93215,-18.09988 -29.19336,-20.43535l7.00641,-101.00903l47.87711,8.75801zm-64.80926,-144.2152c0,-11.09348 8.75801,-19.85149 19.85149,-19.85149s19.85149,8.75801 19.85149,19.85149s-8.75801,19.85149 -19.85149,19.85149s-19.85149,-8.75801 -19.85149,-19.85149zm-54.29965,229.45982c-6.42254,0 -11.67734,-5.2548 -11.67734,-11.67734c0,-6.42254 5.2548,-11.67734 11.67734,-11.67734s11.67734,5.2548 11.67734,11.67734c0,6.42254 -5.2548,11.67734 -11.67734,11.67734zm79.40594,197.93099c0,11.09348 -8.75801,19.85149 -19.85149,19.85149s-19.85149,-8.75801 -19.85149,-19.85149s8.75801,-19.85149 19.85149,-19.85149s19.85149,8.75801 19.85149,19.85149zm-23.35469,-115.02184c-18.09988,0 -32.69656,-14.59668 -32.69656,-32.69656s14.59668,-32.69656 32.69656,-32.69656s32.1127,15.18055 32.1127,33.28043s-14.59668,32.1127 -32.1127,32.1127zm225.95661,33.8643c-11.67734,0 -21.01922,-9.34188 -21.01922,-21.01922s9.34188,-21.01922 21.01922,-21.01922s21.01922,9.34188 21.01922,21.01922s-9.92574,21.01922 -21.01922,21.01922z"/>
   </g>
   <ellipse stroke="#000000" stroke-width="5" ry="361.99768" rx="361.99768" id="svg_3" cy="400" cx="400" fill="none"/>
  </g>
 </g>
</svg>